<?xml version="1.0" encoding="UTF-8"?>
<svg width="30px" height="29px" viewBox="0 0 30 29" version="1.1" xmlns="http://www.w3.org/2000/svg" xmlns:xlink="http://www.w3.org/1999/xlink">
    <title>Star</title>
    <g id="Symbols" stroke="none" strokeWidth="1" fill="none" fillRule="evenodd">
        <path d="M15,25.7424898 C13.1466057,27.9730489 9.83590737,28.2788014 7.60534824,26.4254072 C6.11241095,25.1849104 5.42556353,23.2220132 5.81935182,21.3213226 L5.81935182,21.3213226 L5.81935182,21.3213226 C2.91985804,21.2630115 0.616624421,18.8652369 0.674935541,15.9657431 C0.713963803,14.0250806 1.82037623,12.2642353 3.55191897,11.3870502 L3.55191897,11.3870502 L3.55191897,11.3870502 C1.78970364,9.0837783 2.22831665,5.78804972 4.53158856,4.02583439 C6.07319329,2.84636466 8.13971444,2.61352365 9.90512463,3.42038229 L9.90512463,3.42038229 L9.90512463,3.42038229 C10.6071718,0.606560318 13.4573469,-1.10537138 16.2711689,-0.403324175 C18.1544903,0.0665635898 19.6249876,1.53706089 20.0948754,3.42038229 L20.0948754,3.42038229 L20.0948754,3.42038229 C22.7325292,2.21487559 25.8480264,3.37586026 27.0535331,6.01351413 C27.8603918,7.77892432 27.6275508,9.84544548 26.448081,11.3870502 L26.448081,11.3870502 L26.448081,11.3870502 C29.0351344,12.6976299 30.0699208,15.8572858 28.7593411,18.4443392 C27.8821559,20.1758819 26.1213106,21.2822944 24.1806482,21.3213226 L24.1806482,21.3213226 L24.1806482,21.3213226 C24.7689971,24.1610955 22.9438574,26.9401373 20.1040845,27.5284862 C18.2033939,27.9222745 16.2404968,27.2354271 15,25.7424898 L15,25.7424898 L15,25.7424898 Z" id="Star" fill="#000000" transform="translate(15.000000, 14.000000) scale(1, -1) translate(-15.000000, -14.000000) "></path>
    </g>
</svg>