<?xml version="1.0" encoding="UTF-8"?>
<svg width="22px" height="19px" viewBox="0 0 22 19" version="1.1" xmlns="http://www.w3.org/2000/svg" xmlns:xlink="http://www.w3.org/1999/xlink">
    <title>n</title>
    <g id="Site-Home" stroke="none" strokeWidth="1" fill="none" fillRule="evenodd">
        <g id="02---Services---Desktop" transform="translate(-76.000000, -80.000000)" fill="red" fillRule="nonzero">
            <path d="M85.6483711,98.208 L85.6483711,97.7148493 C83.6107726,97.4496254 83.4909139,96.4667369 83.4838633,94.4725101 L83.4834227,89.7187632 C83.4834227,87.9222857 83.6638351,86.8655342 84.5298144,85.4565323 C85.3236289,84.2236556 87.0195052,83.2021292 88.4988866,83.2021292 C89.3287835,83.2021292 90.1225979,83.6952798 90.5195052,84.4350059 C90.6946113,84.7768961 90.8697174,85.2183366 90.8798663,86.9832116 L90.8798701,94.4743812 C90.872666,96.4380681 90.7525979,97.4499569 88.7514639,97.7148493 L88.7514639,98.208 L97.736,98.208 L97.736,97.7148493 C95.6644415,97.4827784 95.5425851,96.4394344 95.5354171,94.4673479 L95.5349691,85.9144579 C95.5349691,83.429044 95.1741248,82.6089043 94.7652188,82.0494291 L94.7050722,81.9692524 L94.7050722,81.9692524 C93.8030103,80.7363757 92.6483711,80.208 90.8803299,80.208 C88.5349691,80.208 86.1535258,81.3704266 83.4834227,84.1532055 C83.3030103,82.1101526 83.1225979,81.617002 82.5813608,80.5250254 L76.736,80.9829511 L76.736,81.4761018 C78.7396386,81.7744786 78.8574997,82.7281146 78.8644327,84.7187851 L78.8644061,94.4743812 C78.8572021,96.4380681 78.737134,97.4499569 76.736,97.7148493 L76.736,98.208 L85.6483711,98.208 Z" id="n"></path>
        </g>
    </g>
</svg>